{
	"asset":{
		"generator":"Khronos glTF Blender I/O v4.2.69",
		"version":"2.0"
	},
	"extensionsUsed":[
		"KHR_materials_transmission",
		"KHR_materials_ior"
	],
	"scene":0,
	"scenes":[
		{
			"name":"Scene",
			"nodes":[
				0,
				1
			]
		}
	],
	"nodes":[
		{
			"mesh":0,
			"name":"Icosphere",
			"translation":[
				-0.4628744125366211,
				0.05056372284889221,
				0.839461624622345
			]
		},
		{
			"mesh":1,
			"name":"Sphere",
			"scale":[
				2.4419448375701904,
				2.4419448375701904,
				2.4419448375701904
			],
			"translation":[
				-0.4278494119644165,
				-0.07226298749446869,
				0.8337187767028809
			]
		}
	],
	"materials":[
		{
			"doubleSided":true,
			"extensions":{
				"KHR_materials_transmission":{
					"transmissionFactor":0.20454545319080353
				},
				"KHR_materials_ior":{
					"ior":1
				}
			},
			"name":"Material.001",
			"pbrMetallicRoughness":{
				"baseColorTexture":{
					"index":0
				},
				"metallicFactor":0.863636314868927,
				"roughnessFactor":0.041052255779504776
			}
		},
		{
			"alphaMode":"BLEND",
			"doubleSided":true,
			"name":"Material",
			"pbrMetallicRoughness":{
				"baseColorFactor":[
					0.13249313831329346,
					0.4541558623313904,
					0.8013955950737,
					0.03636366128921509
				],
				"metallicFactor":0,
				"roughnessFactor":0.019999999552965164
			}
		}
	],
	"meshes":[
		{
			"name":"Icosphere.001",
			"primitives":[
				{
					"attributes":{
						"POSITION":0,
						"NORMAL":1,
						"TEXCOORD_0":2
					},
					"indices":3,
					"material":0
				}
			]
		},
		{
			"name":"Sphere",
			"primitives":[
				{
					"attributes":{
						"POSITION":4,
						"NORMAL":5,
						"TEXCOORD_0":6
					},
					"indices":7,
					"material":1
				}
			]
		}
	],
	"textures":[
		{
			"sampler":0,
			"source":0
		}
	],
	"images":[
		{
			"mimeType":"image/png",
			"name":"png-transparent-rgb-color-wheel-spectrum-selector-picker-thumbnail",
			"uri":"png-transparent-rgb-color-wheel-spectrum-selector-picker-thumbnail.png"
		}
	],
	"accessors":[
		{
			"bufferView":0,
			"componentType":5126,
			"count":66382,
			"max":[
				1.866881251335144,
				1.9606528282165527,
				2.1024422645568848
			],
			"min":[
				-1.99887216091156,
				-2.4331884384155273,
				-2.163825035095215
			],
			"type":"VEC3"
		},
		{
			"bufferView":1,
			"componentType":5126,
			"count":66382,
			"type":"VEC3"
		},
		{
			"bufferView":2,
			"componentType":5126,
			"count":66382,
			"type":"VEC2"
		},
		{
			"bufferView":3,
			"componentType":5125,
			"count":102876,
			"type":"SCALAR"
		},
		{
			"bufferView":4,
			"componentType":5126,
			"count":559,
			"max":[
				0.9999997019767761,
				1,
				0.9999993443489075
			],
			"min":[
				-0.9999990463256836,
				-1,
				-1
			],
			"type":"VEC3"
		},
		{
			"bufferView":5,
			"componentType":5126,
			"count":559,
			"type":"VEC3"
		},
		{
			"bufferView":6,
			"componentType":5126,
			"count":559,
			"type":"VEC2"
		},
		{
			"bufferView":7,
			"componentType":5123,
			"count":2880,
			"type":"SCALAR"
		}
	],
	"bufferViews":[
		{
			"buffer":0,
			"byteLength":796584,
			"byteOffset":0,
			"target":34962
		},
		{
			"buffer":0,
			"byteLength":796584,
			"byteOffset":796584,
			"target":34962
		},
		{
			"buffer":0,
			"byteLength":531056,
			"byteOffset":1593168,
			"target":34962
		},
		{
			"buffer":0,
			"byteLength":411504,
			"byteOffset":2124224,
			"target":34963
		},
		{
			"buffer":0,
			"byteLength":6708,
			"byteOffset":2535728,
			"target":34962
		},
		{
			"buffer":0,
			"byteLength":6708,
			"byteOffset":2542436,
			"target":34962
		},
		{
			"buffer":0,
			"byteLength":4472,
			"byteOffset":2549144,
			"target":34962
		},
		{
			"buffer":0,
			"byteLength":5760,
			"byteOffset":2553616,
			"target":34963
		}
	],
	"samplers":[
		{
			"magFilter":9729,
			"minFilter":9987
		}
	],
	"buffers":[
		{
			"byteLength":2559376,
			"uri":"untitled.bin"
		}
	]
}
